<?xml version="1.0" standalone="no"?><svg xmlns:xlink="http://www.w3.org/1999/xlink" xmlns="http://www.w3.org/2000/svg" viewBox="0 0 1920 960" preserveAspectRatio="xMaxYMax slice"><g transform="scale(2.56)"><rect x="0" y="0" width="750" height="375" fill="#ffffff"/><g transform="translate(0,0) scale(3.125) rotate(0)"><path d="M10 5L5 0L0 5L5 10L0 15L5 20L10 15L15 20L20 15L15 10L20 5L15 0L10 5Z" fill="#ee515e"/></g><g transform="translate(62.5,0) scale(3.125) rotate(0)"><path d="M10 5L5 0L0 5L5 10L0 15L5 20L10 15L15 20L20 15L15 10L20 5L15 0L10 5Z" fill="#e1e1e1"/></g><g transform="translate(125,0) scale(3.125) rotate(0)"><path d="M10 5L5 0L0 5L5 10L0 15L5 20L10 15L15 20L20 15L15 10L20 5L15 0L10 5Z" fill="#ec3c4b"/></g><g transform="translate(187.5,0) scale(3.125) rotate(0)"><path d="M10 5L5 0L0 5L5 10L0 15L5 20L10 15L15 20L20 15L15 10L20 5L15 0L10 5Z" fill="#353535"/></g><g transform="translate(250,0) scale(3.125) rotate(0)"><path d="M10 5L5 0L0 5L5 10L0 15L5 20L10 15L15 20L20 15L15 10L20 5L15 0L10 5Z" fill="#f48b93"/></g><g transform="translate(312.5,0) scale(3.125) rotate(0)"><path d="M10 5L5 0L0 5L5 10L0 15L5 20L10 15L15 20L20 15L15 10L20 5L15 0L10 5Z" fill="#5a5a5a"/></g><rect x="375" y="0" width="62.5" height="62.5" fill="#ffffff"/><g transform="translate(375,0) scale(1.5625) rotate(0)"><path d="M10 5L5 0L0 5L5 10L0 15L5 20L10 15L15 20L20 15L15 10L20 5L15 0L10 5Z" fill="#fdeaec"/></g><g transform="translate(406.25,0) scale(1.5625) rotate(0)"><path d="M10 5L5 0L0 5L5 10L0 15L5 20L10 15L15 20L20 15L15 10L20 5L15 0L10 5Z" fill="#eb3342"/></g><g transform="translate(375,31.25) scale(1.5625) rotate(0)"><path d="M10 5L5 0L0 5L5 10L0 15L5 20L10 15L15 20L20 15L15 10L20 5L15 0L10 5Z" fill="#f49199"/></g><g transform="translate(406.25,31.25) scale(1.5625) rotate(0)"><path d="M10 5L5 0L0 5L5 10L0 15L5 20L10 15L15 20L20 15L15 10L20 5L15 0L10 5Z" fill="#acacac"/></g><g transform="translate(437.5,0) scale(3.125) rotate(0)"><path d="M10 5L5 0L0 5L5 10L0 15L5 20L10 15L15 20L20 15L15 10L20 5L15 0L10 5Z" fill="#eb3040"/></g><g transform="translate(500,0) scale(3.125) rotate(0)"><path d="M10 5L5 0L0 5L5 10L0 15L5 20L10 15L15 20L20 15L15 10L20 5L15 0L10 5Z" fill="#f38790"/></g><rect x="562.5" y="0" width="62.5" height="62.5" fill="#ffffff"/><g transform="translate(562.5,0) scale(1.5625) rotate(0)"><path d="M10 5L5 0L0 5L5 10L0 15L5 20L10 15L15 20L20 15L15 10L20 5L15 0L10 5Z" fill="#f27983"/></g><g transform="translate(593.75,0) scale(1.5625) rotate(0)"><path d="M10 5L5 0L0 5L5 10L0 15L5 20L10 15L15 20L20 15L15 10L20 5L15 0L10 5Z" fill="#fef3f3"/></g><g transform="translate(562.5,31.25) scale(1.5625) rotate(0)"><path d="M10 5L5 0L0 5L5 10L0 15L5 20L10 15L15 20L20 15L15 10L20 5L15 0L10 5Z" fill="#f4f4f4"/></g><g transform="translate(593.75,31.25) scale(1.5625) rotate(0)"><path d="M10 5L5 0L0 5L5 10L0 15L5 20L10 15L15 20L20 15L15 10L20 5L15 0L10 5Z" fill="#f3f3f3"/></g><g transform="translate(625,0) scale(3.125) rotate(0)"><path d="M10 5L5 0L0 5L5 10L0 15L5 20L10 15L15 20L20 15L15 10L20 5L15 0L10 5Z" fill="#c4c4c4"/></g><rect x="687.5" y="0" width="62.5" height="62.5" fill="#ffffff"/><g transform="translate(687.5,0) scale(1.5625) rotate(0)"><path d="M10 5L5 0L0 5L5 10L0 15L5 20L10 15L15 20L20 15L15 10L20 5L15 0L10 5Z" fill="#ed4956"/></g><g transform="translate(718.75,0) scale(1.5625) rotate(0)"><path d="M10 5L5 0L0 5L5 10L0 15L5 20L10 15L15 20L20 15L15 10L20 5L15 0L10 5Z" fill="#fef5f6"/></g><g transform="translate(687.5,31.25) scale(1.5625) rotate(0)"><path d="M10 5L5 0L0 5L5 10L0 15L5 20L10 15L15 20L20 15L15 10L20 5L15 0L10 5Z" fill="#727272"/></g><g transform="translate(718.75,31.25) scale(1.5625) rotate(0)"><path d="M10 5L5 0L0 5L5 10L0 15L5 20L10 15L15 20L20 15L15 10L20 5L15 0L10 5Z" fill="#6c6c6c"/></g><rect x="0" y="62.5" width="62.5" height="62.5" fill="#ffffff"/><g transform="translate(0,62.5) scale(1.5625) rotate(0)"><path d="M10 5L5 0L0 5L5 10L0 15L5 20L10 15L15 20L20 15L15 10L20 5L15 0L10 5Z" fill="#f27a84"/></g><g transform="translate(31.25,62.5) scale(1.5625) rotate(0)"><path d="M10 5L5 0L0 5L5 10L0 15L5 20L10 15L15 20L20 15L15 10L20 5L15 0L10 5Z" fill="#8e8e8e"/></g><g transform="translate(0,93.75) scale(1.5625) rotate(0)"><path d="M10 5L5 0L0 5L5 10L0 15L5 20L10 15L15 20L20 15L15 10L20 5L15 0L10 5Z" fill="#757575"/></g><g transform="translate(31.25,93.75) scale(1.5625) rotate(0)"><path d="M10 5L5 0L0 5L5 10L0 15L5 20L10 15L15 20L20 15L15 10L20 5L15 0L10 5Z" fill="#f16e78"/></g><rect x="62.5" y="62.5" width="62.5" height="62.5" fill="#ffffff"/><g transform="translate(62.5,62.5) scale(1.5625) rotate(0)"><path d="M10 5L5 0L0 5L5 10L0 15L5 20L10 15L15 20L20 15L15 10L20 5L15 0L10 5Z" fill="#f8f8f8"/></g><g transform="translate(93.75,62.5) scale(1.5625) rotate(0)"><path d="M10 5L5 0L0 5L5 10L0 15L5 20L10 15L15 20L20 15L15 10L20 5L15 0L10 5Z" fill="#343434"/></g><g transform="translate(62.5,93.75) scale(1.5625) rotate(0)"><path d="M10 5L5 0L0 5L5 10L0 15L5 20L10 15L15 20L20 15L15 10L20 5L15 0L10 5Z" fill="#ec4250"/></g><g transform="translate(93.75,93.75) scale(1.5625) rotate(0)"><path d="M10 5L5 0L0 5L5 10L0 15L5 20L10 15L15 20L20 15L15 10L20 5L15 0L10 5Z" fill="#f6a0a7"/></g><g transform="translate(125,62.5) scale(3.125) rotate(0)"><path d="M10 5L5 0L0 5L5 10L0 15L5 20L10 15L15 20L20 15L15 10L20 5L15 0L10 5Z" fill="#fac8cc"/></g><rect x="187.5" y="62.5" width="62.5" height="62.5" fill="#ffffff"/><g transform="translate(187.5,62.5) scale(1.5625) rotate(0)"><path d="M10 5L5 0L0 5L5 10L0 15L5 20L10 15L15 20L20 15L15 10L20 5L15 0L10 5Z" fill="#939393"/></g><g transform="translate(218.75,62.5) scale(1.5625) rotate(0)"><path d="M10 5L5 0L0 5L5 10L0 15L5 20L10 15L15 20L20 15L15 10L20 5L15 0L10 5Z" fill="#818181"/></g><g transform="translate(187.5,93.75) scale(1.5625) rotate(0)"><path d="M10 5L5 0L0 5L5 10L0 15L5 20L10 15L15 20L20 15L15 10L20 5L15 0L10 5Z" fill="#474747"/></g><g transform="translate(218.75,93.75) scale(1.5625) rotate(0)"><path d="M10 5L5 0L0 5L5 10L0 15L5 20L10 15L15 20L20 15L15 10L20 5L15 0L10 5Z" fill="#6b6b6b"/></g><g transform="translate(250,62.5) scale(3.125) rotate(0)"><path d="M10 5L5 0L0 5L5 10L0 15L5 20L10 15L15 20L20 15L15 10L20 5L15 0L10 5Z" fill="#f8f8f8"/></g><g transform="translate(312.5,62.5) scale(3.125) rotate(0)"><path d="M10 5L5 0L0 5L5 10L0 15L5 20L10 15L15 20L20 15L15 10L20 5L15 0L10 5Z" fill="#f7b2b8"/></g><rect x="375" y="62.5" width="62.5" height="62.5" fill="#ffffff"/><g transform="translate(375,62.5) scale(1.5625) rotate(0)"><path d="M10 5L5 0L0 5L5 10L0 15L5 20L10 15L15 20L20 15L15 10L20 5L15 0L10 5Z" fill="#8b8b8b"/></g><g transform="translate(406.25,62.5) scale(1.5625) rotate(0)"><path d="M10 5L5 0L0 5L5 10L0 15L5 20L10 15L15 20L20 15L15 10L20 5L15 0L10 5Z" fill="#a3a3a3"/></g><g transform="translate(375,93.75) scale(1.5625) rotate(0)"><path d="M10 5L5 0L0 5L5 10L0 15L5 20L10 15L15 20L20 15L15 10L20 5L15 0L10 5Z" fill="#f06570"/></g><g transform="translate(406.25,93.75) scale(1.5625) rotate(0)"><path d="M10 5L5 0L0 5L5 10L0 15L5 20L10 15L15 20L20 15L15 10L20 5L15 0L10 5Z" fill="#111111"/></g><rect x="437.5" y="62.5" width="62.5" height="62.5" fill="#ffffff"/><g transform="translate(437.5,62.5) scale(1.5625) rotate(0)"><path d="M10 5L5 0L0 5L5 10L0 15L5 20L10 15L15 20L20 15L15 10L20 5L15 0L10 5Z" fill="#f7b1b7"/></g><g transform="translate(468.75,62.5) scale(1.5625) rotate(0)"><path d="M10 5L5 0L0 5L5 10L0 15L5 20L10 15L15 20L20 15L15 10L20 5L15 0L10 5Z" fill="#ef5c68"/></g><g transform="translate(437.5,93.75) scale(1.5625) rotate(0)"><path d="M10 5L5 0L0 5L5 10L0 15L5 20L10 15L15 20L20 15L15 10L20 5L15 0L10 5Z" fill="#f48f98"/></g><g transform="translate(468.75,93.75) scale(1.5625) rotate(0)"><path d="M10 5L5 0L0 5L5 10L0 15L5 20L10 15L15 20L20 15L15 10L20 5L15 0L10 5Z" fill="#ea2b3b"/></g><g transform="translate(500,62.5) scale(3.125) rotate(0)"><path d="M10 5L5 0L0 5L5 10L0 15L5 20L10 15L15 20L20 15L15 10L20 5L15 0L10 5Z" fill="#6a6a6a"/></g><g transform="translate(562.5,62.5) scale(3.125) rotate(0)"><path d="M10 5L5 0L0 5L5 10L0 15L5 20L10 15L15 20L20 15L15 10L20 5L15 0L10 5Z" fill="#242424"/></g><rect x="625" y="62.5" width="62.5" height="62.5" fill="#ffffff"/><g transform="translate(625,62.5) scale(1.5625) rotate(0)"><path d="M10 5L5 0L0 5L5 10L0 15L5 20L10 15L15 20L20 15L15 10L20 5L15 0L10 5Z" fill="#fffcfc"/></g><g transform="translate(656.25,62.5) scale(1.5625) rotate(0)"><path d="M10 5L5 0L0 5L5 10L0 15L5 20L10 15L15 20L20 15L15 10L20 5L15 0L10 5Z" fill="#f8b5bb"/></g><g transform="translate(625,93.75) scale(1.5625) rotate(0)"><path d="M10 5L5 0L0 5L5 10L0 15L5 20L10 15L15 20L20 15L15 10L20 5L15 0L10 5Z" fill="#f59fa6"/></g><g transform="translate(656.25,93.75) scale(1.5625) rotate(0)"><path d="M10 5L5 0L0 5L5 10L0 15L5 20L10 15L15 20L20 15L15 10L20 5L15 0L10 5Z" fill="#ee505d"/></g><rect x="687.5" y="62.5" width="62.5" height="62.5" fill="#ffffff"/><g transform="translate(687.5,62.5) scale(1.5625) rotate(0)"><path d="M10 5L5 0L0 5L5 10L0 15L5 20L10 15L15 20L20 15L15 10L20 5L15 0L10 5Z" fill="#ec404e"/></g><g transform="translate(718.75,62.5) scale(1.5625) rotate(0)"><path d="M10 5L5 0L0 5L5 10L0 15L5 20L10 15L15 20L20 15L15 10L20 5L15 0L10 5Z" fill="#545454"/></g><g transform="translate(687.5,93.75) scale(1.5625) rotate(0)"><path d="M10 5L5 0L0 5L5 10L0 15L5 20L10 15L15 20L20 15L15 10L20 5L15 0L10 5Z" fill="#f59ea5"/></g><g transform="translate(718.75,93.75) scale(1.5625) rotate(0)"><path d="M10 5L5 0L0 5L5 10L0 15L5 20L10 15L15 20L20 15L15 10L20 5L15 0L10 5Z" fill="#595959"/></g><g transform="translate(0,125) scale(3.125) rotate(0)"><path d="M10 5L5 0L0 5L5 10L0 15L5 20L10 15L15 20L20 15L15 10L20 5L15 0L10 5Z" fill="#ec3a49"/></g><g transform="translate(62.5,125) scale(3.125) rotate(0)"><path d="M10 5L5 0L0 5L5 10L0 15L5 20L10 15L15 20L20 15L15 10L20 5L15 0L10 5Z" fill="#ec3e4c"/></g><g transform="translate(125,125) scale(3.125) rotate(0)"><path d="M10 5L5 0L0 5L5 10L0 15L5 20L10 15L15 20L20 15L15 10L20 5L15 0L10 5Z" fill="#7e7e7e"/></g><g transform="translate(187.5,125) scale(3.125) rotate(0)"><path d="M10 5L5 0L0 5L5 10L0 15L5 20L10 15L15 20L20 15L15 10L20 5L15 0L10 5Z" fill="#ef606c"/></g><rect x="250" y="125" width="62.5" height="62.5" fill="#ffffff"/><g transform="translate(250,125) scale(1.5625) rotate(0)"><path d="M10 5L5 0L0 5L5 10L0 15L5 20L10 15L15 20L20 15L15 10L20 5L15 0L10 5Z" fill="#2e2e2e"/></g><g transform="translate(281.25,125) scale(1.5625) rotate(0)"><path d="M10 5L5 0L0 5L5 10L0 15L5 20L10 15L15 20L20 15L15 10L20 5L15 0L10 5Z" fill="#323232"/></g><g transform="translate(250,156.25) scale(1.5625) rotate(0)"><path d="M10 5L5 0L0 5L5 10L0 15L5 20L10 15L15 20L20 15L15 10L20 5L15 0L10 5Z" fill="#f06a75"/></g><g transform="translate(281.25,156.25) scale(1.5625) rotate(0)"><path d="M10 5L5 0L0 5L5 10L0 15L5 20L10 15L15 20L20 15L15 10L20 5L15 0L10 5Z" fill="#f6a6ad"/></g><g transform="translate(312.5,125) scale(3.125) rotate(0)"><path d="M10 5L5 0L0 5L5 10L0 15L5 20L10 15L15 20L20 15L15 10L20 5L15 0L10 5Z" fill="#f7acb2"/></g><rect x="375" y="125" width="62.5" height="62.5" fill="#ffffff"/><g transform="translate(375,125) scale(1.5625) rotate(0)"><path d="M10 5L5 0L0 5L5 10L0 15L5 20L10 15L15 20L20 15L15 10L20 5L15 0L10 5Z" fill="#ef5864"/></g><g transform="translate(406.25,125) scale(1.5625) rotate(0)"><path d="M10 5L5 0L0 5L5 10L0 15L5 20L10 15L15 20L20 15L15 10L20 5L15 0L10 5Z" fill="#fce1e4"/></g><g transform="translate(375,156.25) scale(1.5625) rotate(0)"><path d="M10 5L5 0L0 5L5 10L0 15L5 20L10 15L15 20L20 15L15 10L20 5L15 0L10 5Z" fill="#fef6f7"/></g><g transform="translate(406.25,156.25) scale(1.5625) rotate(0)"><path d="M10 5L5 0L0 5L5 10L0 15L5 20L10 15L15 20L20 15L15 10L20 5L15 0L10 5Z" fill="#eb3242"/></g><g transform="translate(437.5,125) scale(3.125) rotate(0)"><path d="M10 5L5 0L0 5L5 10L0 15L5 20L10 15L15 20L20 15L15 10L20 5L15 0L10 5Z" fill="#ed4d5a"/></g><g transform="translate(500,125) scale(3.125) rotate(0)"><path d="M10 5L5 0L0 5L5 10L0 15L5 20L10 15L15 20L20 15L15 10L20 5L15 0L10 5Z" fill="#b0b0b0"/></g><g transform="translate(562.5,125) scale(3.125) rotate(0)"><path d="M10 5L5 0L0 5L5 10L0 15L5 20L10 15L15 20L20 15L15 10L20 5L15 0L10 5Z" fill="#464646"/></g><g transform="translate(625,125) scale(3.125) rotate(0)"><path d="M10 5L5 0L0 5L5 10L0 15L5 20L10 15L15 20L20 15L15 10L20 5L15 0L10 5Z" fill="#eb3544"/></g><g transform="translate(687.5,125) scale(3.125) rotate(0)"><path d="M10 5L5 0L0 5L5 10L0 15L5 20L10 15L15 20L20 15L15 10L20 5L15 0L10 5Z" fill="#ea2e3e"/></g><g transform="translate(0,187.5) scale(3.125) rotate(0)"><path d="M10 5L5 0L0 5L5 10L0 15L5 20L10 15L15 20L20 15L15 10L20 5L15 0L10 5Z" fill="#fcdee1"/></g><g transform="translate(62.5,187.5) scale(3.125) rotate(0)"><path d="M10 5L5 0L0 5L5 10L0 15L5 20L10 15L15 20L20 15L15 10L20 5L15 0L10 5Z" fill="#fde8e9"/></g><g transform="translate(125,187.5) scale(3.125) rotate(0)"><path d="M10 5L5 0L0 5L5 10L0 15L5 20L10 15L15 20L20 15L15 10L20 5L15 0L10 5Z" fill="#fce1e3"/></g><g transform="translate(187.5,187.5) scale(3.125) rotate(0)"><path d="M10 5L5 0L0 5L5 10L0 15L5 20L10 15L15 20L20 15L15 10L20 5L15 0L10 5Z" fill="#f48b94"/></g><g transform="translate(250,187.5) scale(3.125) rotate(0)"><path d="M10 5L5 0L0 5L5 10L0 15L5 20L10 15L15 20L20 15L15 10L20 5L15 0L10 5Z" fill="#8f8f8f"/></g><g transform="translate(312.5,187.5) scale(3.125) rotate(0)"><path d="M10 5L5 0L0 5L5 10L0 15L5 20L10 15L15 20L20 15L15 10L20 5L15 0L10 5Z" fill="#f49199"/></g><g transform="translate(375,187.5) scale(3.125) rotate(0)"><path d="M10 5L5 0L0 5L5 10L0 15L5 20L10 15L15 20L20 15L15 10L20 5L15 0L10 5Z" fill="#9b9b9b"/></g><g transform="translate(437.5,187.5) scale(3.125) rotate(0)"><path d="M10 5L5 0L0 5L5 10L0 15L5 20L10 15L15 20L20 15L15 10L20 5L15 0L10 5Z" fill="#bdbdbd"/></g><g transform="translate(500,187.5) scale(3.125) rotate(0)"><path d="M10 5L5 0L0 5L5 10L0 15L5 20L10 15L15 20L20 15L15 10L20 5L15 0L10 5Z" fill="#fbd4d7"/></g><g transform="translate(562.5,187.5) scale(3.125) rotate(0)"><path d="M10 5L5 0L0 5L5 10L0 15L5 20L10 15L15 20L20 15L15 10L20 5L15 0L10 5Z" fill="#7f7f7f"/></g><g transform="translate(625,187.5) scale(3.125) rotate(0)"><path d="M10 5L5 0L0 5L5 10L0 15L5 20L10 15L15 20L20 15L15 10L20 5L15 0L10 5Z" fill="#f7b1b7"/></g><rect x="687.5" y="187.5" width="62.5" height="62.5" fill="#ffffff"/><g transform="translate(687.5,187.5) scale(1.5625) rotate(0)"><path d="M10 5L5 0L0 5L5 10L0 15L5 20L10 15L15 20L20 15L15 10L20 5L15 0L10 5Z" fill="#c2c2c2"/></g><g transform="translate(718.75,187.5) scale(1.5625) rotate(0)"><path d="M10 5L5 0L0 5L5 10L0 15L5 20L10 15L15 20L20 15L15 10L20 5L15 0L10 5Z" fill="#f5f5f5"/></g><g transform="translate(687.5,218.75) scale(1.5625) rotate(0)"><path d="M10 5L5 0L0 5L5 10L0 15L5 20L10 15L15 20L20 15L15 10L20 5L15 0L10 5Z" fill="#f0636e"/></g><g transform="translate(718.75,218.75) scale(1.5625) rotate(0)"><path d="M10 5L5 0L0 5L5 10L0 15L5 20L10 15L15 20L20 15L15 10L20 5L15 0L10 5Z" fill="#ee5360"/></g><g transform="translate(0,250) scale(3.125) rotate(0)"><path d="M10 5L5 0L0 5L5 10L0 15L5 20L10 15L15 20L20 15L15 10L20 5L15 0L10 5Z" fill="#eb3140"/></g><g transform="translate(62.5,250) scale(3.125) rotate(0)"><path d="M10 5L5 0L0 5L5 10L0 15L5 20L10 15L15 20L20 15L15 10L20 5L15 0L10 5Z" fill="#787878"/></g><g transform="translate(125,250) scale(3.125) rotate(0)"><path d="M10 5L5 0L0 5L5 10L0 15L5 20L10 15L15 20L20 15L15 10L20 5L15 0L10 5Z" fill="#0e0e0e"/></g><g transform="translate(187.5,250) scale(3.125) rotate(0)"><path d="M10 5L5 0L0 5L5 10L0 15L5 20L10 15L15 20L20 15L15 10L20 5L15 0L10 5Z" fill="#acacac"/></g><g transform="translate(250,250) scale(3.125) rotate(0)"><path d="M10 5L5 0L0 5L5 10L0 15L5 20L10 15L15 20L20 15L15 10L20 5L15 0L10 5Z" fill="#797979"/></g><g transform="translate(312.5,250) scale(3.125) rotate(0)"><path d="M10 5L5 0L0 5L5 10L0 15L5 20L10 15L15 20L20 15L15 10L20 5L15 0L10 5Z" fill="#6a6a6a"/></g><g transform="translate(375,250) scale(3.125) rotate(0)"><path d="M10 5L5 0L0 5L5 10L0 15L5 20L10 15L15 20L20 15L15 10L20 5L15 0L10 5Z" fill="#facdd1"/></g><g transform="translate(437.5,250) scale(3.125) rotate(0)"><path d="M10 5L5 0L0 5L5 10L0 15L5 20L10 15L15 20L20 15L15 10L20 5L15 0L10 5Z" fill="#898989"/></g><g transform="translate(500,250) scale(3.125) rotate(0)"><path d="M10 5L5 0L0 5L5 10L0 15L5 20L10 15L15 20L20 15L15 10L20 5L15 0L10 5Z" fill="#f59ea6"/></g><g transform="translate(562.5,250) scale(3.125) rotate(0)"><path d="M10 5L5 0L0 5L5 10L0 15L5 20L10 15L15 20L20 15L15 10L20 5L15 0L10 5Z" fill="#f8bbc0"/></g><g transform="translate(625,250) scale(3.125) rotate(0)"><path d="M10 5L5 0L0 5L5 10L0 15L5 20L10 15L15 20L20 15L15 10L20 5L15 0L10 5Z" fill="#b7b7b7"/></g><rect x="687.5" y="250" width="62.5" height="62.5" fill="#ffffff"/><g transform="translate(687.5,250) scale(1.5625) rotate(0)"><path d="M10 5L5 0L0 5L5 10L0 15L5 20L10 15L15 20L20 15L15 10L20 5L15 0L10 5Z" fill="#cccccc"/></g><g transform="translate(718.75,250) scale(1.5625) rotate(0)"><path d="M10 5L5 0L0 5L5 10L0 15L5 20L10 15L15 20L20 15L15 10L20 5L15 0L10 5Z" fill="#979797"/></g><g transform="translate(687.5,281.25) scale(1.5625) rotate(0)"><path d="M10 5L5 0L0 5L5 10L0 15L5 20L10 15L15 20L20 15L15 10L20 5L15 0L10 5Z" fill="#ed4d5a"/></g><g transform="translate(718.75,281.25) scale(1.5625) rotate(0)"><path d="M10 5L5 0L0 5L5 10L0 15L5 20L10 15L15 20L20 15L15 10L20 5L15 0L10 5Z" fill="#515151"/></g><rect x="0" y="312.5" width="62.5" height="62.5" fill="#ffffff"/><g transform="translate(0,312.5) scale(1.5625) rotate(0)"><path d="M10 5L5 0L0 5L5 10L0 15L5 20L10 15L15 20L20 15L15 10L20 5L15 0L10 5Z" fill="#818181"/></g><g transform="translate(31.25,312.5) scale(1.5625) rotate(0)"><path d="M10 5L5 0L0 5L5 10L0 15L5 20L10 15L15 20L20 15L15 10L20 5L15 0L10 5Z" fill="#f48d96"/></g><g transform="translate(0,343.75) scale(1.5625) rotate(0)"><path d="M10 5L5 0L0 5L5 10L0 15L5 20L10 15L15 20L20 15L15 10L20 5L15 0L10 5Z" fill="#fad1d5"/></g><g transform="translate(31.25,343.75) scale(1.5625) rotate(0)"><path d="M10 5L5 0L0 5L5 10L0 15L5 20L10 15L15 20L20 15L15 10L20 5L15 0L10 5Z" fill="#f8b8be"/></g><rect x="62.5" y="312.5" width="62.5" height="62.5" fill="#ffffff"/><g transform="translate(62.5,312.5) scale(1.5625) rotate(0)"><path d="M10 5L5 0L0 5L5 10L0 15L5 20L10 15L15 20L20 15L15 10L20 5L15 0L10 5Z" fill="#ee5764"/></g><g transform="translate(93.75,312.5) scale(1.5625) rotate(0)"><path d="M10 5L5 0L0 5L5 10L0 15L5 20L10 15L15 20L20 15L15 10L20 5L15 0L10 5Z" fill="#fef1f2"/></g><g transform="translate(62.5,343.75) scale(1.5625) rotate(0)"><path d="M10 5L5 0L0 5L5 10L0 15L5 20L10 15L15 20L20 15L15 10L20 5L15 0L10 5Z" fill="#484848"/></g><g transform="translate(93.75,343.75) scale(1.5625) rotate(0)"><path d="M10 5L5 0L0 5L5 10L0 15L5 20L10 15L15 20L20 15L15 10L20 5L15 0L10 5Z" fill="#181818"/></g><g transform="translate(125,312.5) scale(3.125) rotate(0)"><path d="M10 5L5 0L0 5L5 10L0 15L5 20L10 15L15 20L20 15L15 10L20 5L15 0L10 5Z" fill="#fce2e4"/></g><g transform="translate(187.5,312.5) scale(3.125) rotate(0)"><path d="M10 5L5 0L0 5L5 10L0 15L5 20L10 15L15 20L20 15L15 10L20 5L15 0L10 5Z" fill="#bebebe"/></g><g transform="translate(250,312.5) scale(3.125) rotate(0)"><path d="M10 5L5 0L0 5L5 10L0 15L5 20L10 15L15 20L20 15L15 10L20 5L15 0L10 5Z" fill="#f4949c"/></g><g transform="translate(312.5,312.5) scale(3.125) rotate(0)"><path d="M10 5L5 0L0 5L5 10L0 15L5 20L10 15L15 20L20 15L15 10L20 5L15 0L10 5Z" fill="#6f6f6f"/></g><rect x="375" y="312.5" width="62.5" height="62.5" fill="#ffffff"/><g transform="translate(375,312.5) scale(1.5625) rotate(0)"><path d="M10 5L5 0L0 5L5 10L0 15L5 20L10 15L15 20L20 15L15 10L20 5L15 0L10 5Z" fill="#151515"/></g><g transform="translate(406.25,312.5) scale(1.5625) rotate(0)"><path d="M10 5L5 0L0 5L5 10L0 15L5 20L10 15L15 20L20 15L15 10L20 5L15 0L10 5Z" fill="#dedede"/></g><g transform="translate(375,343.75) scale(1.5625) rotate(0)"><path d="M10 5L5 0L0 5L5 10L0 15L5 20L10 15L15 20L20 15L15 10L20 5L15 0L10 5Z" fill="#fef6f7"/></g><g transform="translate(406.25,343.75) scale(1.5625) rotate(0)"><path d="M10 5L5 0L0 5L5 10L0 15L5 20L10 15L15 20L20 15L15 10L20 5L15 0L10 5Z" fill="#f0636f"/></g><g transform="translate(437.5,312.5) scale(3.125) rotate(0)"><path d="M10 5L5 0L0 5L5 10L0 15L5 20L10 15L15 20L20 15L15 10L20 5L15 0L10 5Z" fill="#b9b9b9"/></g><rect x="500" y="312.5" width="62.5" height="62.5" fill="#ffffff"/><g transform="translate(500,312.5) scale(1.5625) rotate(0)"><path d="M10 5L5 0L0 5L5 10L0 15L5 20L10 15L15 20L20 15L15 10L20 5L15 0L10 5Z" fill="#c6c6c6"/></g><g transform="translate(531.25,312.5) scale(1.5625) rotate(0)"><path d="M10 5L5 0L0 5L5 10L0 15L5 20L10 15L15 20L20 15L15 10L20 5L15 0L10 5Z" fill="#f2f2f2"/></g><g transform="translate(500,343.75) scale(1.5625) rotate(0)"><path d="M10 5L5 0L0 5L5 10L0 15L5 20L10 15L15 20L20 15L15 10L20 5L15 0L10 5Z" fill="#eb3141"/></g><g transform="translate(531.25,343.75) scale(1.5625) rotate(0)"><path d="M10 5L5 0L0 5L5 10L0 15L5 20L10 15L15 20L20 15L15 10L20 5L15 0L10 5Z" fill="#a9a9a9"/></g><g transform="translate(562.5,312.5) scale(3.125) rotate(0)"><path d="M10 5L5 0L0 5L5 10L0 15L5 20L10 15L15 20L20 15L15 10L20 5L15 0L10 5Z" fill="#f8f8f8"/></g><g transform="translate(625,312.5) scale(3.125) rotate(0)"><path d="M10 5L5 0L0 5L5 10L0 15L5 20L10 15L15 20L20 15L15 10L20 5L15 0L10 5Z" fill="#f59fa6"/></g><rect x="687.5" y="312.5" width="62.5" height="62.5" fill="#ffffff"/><g transform="translate(687.5,312.5) scale(1.5625) rotate(0)"><path d="M10 5L5 0L0 5L5 10L0 15L5 20L10 15L15 20L20 15L15 10L20 5L15 0L10 5Z" fill="#b3b3b3"/></g><g transform="translate(718.75,312.5) scale(1.5625) rotate(0)"><path d="M10 5L5 0L0 5L5 10L0 15L5 20L10 15L15 20L20 15L15 10L20 5L15 0L10 5Z" fill="#ef5c68"/></g><g transform="translate(687.5,343.75) scale(1.5625) rotate(0)"><path d="M10 5L5 0L0 5L5 10L0 15L5 20L10 15L15 20L20 15L15 10L20 5L15 0L10 5Z" fill="#e7e7e7"/></g><g transform="translate(718.75,343.75) scale(1.5625) rotate(0)"><path d="M10 5L5 0L0 5L5 10L0 15L5 20L10 15L15 20L20 15L15 10L20 5L15 0L10 5Z" fill="#242424"/></g></g></svg>