<?xml version="1.0" standalone="no"?><svg xmlns:xlink="http://www.w3.org/1999/xlink" xmlns="http://www.w3.org/2000/svg" viewBox="0 0 1920 960" preserveAspectRatio="xMaxYMax slice"><g transform="scale(2.56)"><rect x="0" y="0" width="750" height="375" fill="white" stroke="none" stroke-width="2"/><rect x="0" y="0" width="62.5" height="62.5" fill="white" stroke="none" stroke-width="2"/><g transform="translate(0,0) scale(1.5625) rotate(0)"><path d="M10 5L5 0L0 5L5 10L0 15L5 20L10 15L15 20L20 15L15 10L20 5L15 0L10 5Z" fill="none" stroke="black" stroke-width="1.28"/></g><g transform="translate(31.25,0) scale(1.5625) rotate(0)"><path d="M10 5L5 0L0 5L5 10L0 15L5 20L10 15L15 20L20 15L15 10L20 5L15 0L10 5Z" fill="none" stroke="black" stroke-width="1.28"/></g><g transform="translate(0,31.25) scale(1.5625) rotate(0)"><path d="M10 5L5 0L0 5L5 10L0 15L5 20L10 15L15 20L20 15L15 10L20 5L15 0L10 5Z" fill="none" stroke="black" stroke-width="1.28"/></g><g transform="translate(31.25,31.25) scale(1.5625) rotate(0)"><path d="M10 5L5 0L0 5L5 10L0 15L5 20L10 15L15 20L20 15L15 10L20 5L15 0L10 5Z" fill="none" stroke="black" stroke-width="1.28"/></g><g transform="translate(62.5,0) scale(3.125) rotate(0)"><path d="M10 5L5 0L0 5L5 10L0 15L5 20L10 15L15 20L20 15L15 10L20 5L15 0L10 5Z" fill="none" stroke="black" stroke-width="0.64"/></g><g transform="translate(125,0) scale(3.125) rotate(0)"><path d="M10 5L5 0L0 5L5 10L0 15L5 20L10 15L15 20L20 15L15 10L20 5L15 0L10 5Z" fill="none" stroke="black" stroke-width="0.64"/></g><rect x="187.5" y="0" width="62.5" height="62.5" fill="white" stroke="none" stroke-width="2"/><g transform="translate(187.5,0) scale(1.5625) rotate(0)"><path d="M10 5L5 0L0 5L5 10L0 15L5 20L10 15L15 20L20 15L15 10L20 5L15 0L10 5Z" fill="none" stroke="black" stroke-width="1.28"/></g><g transform="translate(218.75,0) scale(1.5625) rotate(0)"><path d="M10 5L5 0L0 5L5 10L0 15L5 20L10 15L15 20L20 15L15 10L20 5L15 0L10 5Z" fill="none" stroke="black" stroke-width="1.28"/></g><g transform="translate(187.5,31.25) scale(1.5625) rotate(0)"><path d="M10 5L5 0L0 5L5 10L0 15L5 20L10 15L15 20L20 15L15 10L20 5L15 0L10 5Z" fill="none" stroke="black" stroke-width="1.28"/></g><g transform="translate(218.75,31.25) scale(1.5625) rotate(0)"><path d="M10 5L5 0L0 5L5 10L0 15L5 20L10 15L15 20L20 15L15 10L20 5L15 0L10 5Z" fill="none" stroke="black" stroke-width="1.28"/></g><g transform="translate(250,0) scale(3.125) rotate(0)"><path d="M10 5L5 0L0 5L5 10L0 15L5 20L10 15L15 20L20 15L15 10L20 5L15 0L10 5Z" fill="none" stroke="black" stroke-width="0.64"/></g><rect x="312.5" y="0" width="62.5" height="62.5" fill="white" stroke="none" stroke-width="2"/><g transform="translate(312.5,0) scale(1.5625) rotate(0)"><path d="M10 5L5 0L0 5L5 10L0 15L5 20L10 15L15 20L20 15L15 10L20 5L15 0L10 5Z" fill="none" stroke="black" stroke-width="1.28"/></g><g transform="translate(343.75,0) scale(1.5625) rotate(0)"><path d="M10 5L5 0L0 5L5 10L0 15L5 20L10 15L15 20L20 15L15 10L20 5L15 0L10 5Z" fill="none" stroke="black" stroke-width="1.28"/></g><g transform="translate(312.5,31.25) scale(1.5625) rotate(0)"><path d="M10 5L5 0L0 5L5 10L0 15L5 20L10 15L15 20L20 15L15 10L20 5L15 0L10 5Z" fill="none" stroke="black" stroke-width="1.28"/></g><g transform="translate(343.75,31.25) scale(1.5625) rotate(0)"><path d="M10 5L5 0L0 5L5 10L0 15L5 20L10 15L15 20L20 15L15 10L20 5L15 0L10 5Z" fill="none" stroke="black" stroke-width="1.28"/></g><rect x="375" y="0" width="62.5" height="62.5" fill="white" stroke="none" stroke-width="2"/><g transform="translate(375,0) scale(1.5625) rotate(0)"><path d="M10 5L5 0L0 5L5 10L0 15L5 20L10 15L15 20L20 15L15 10L20 5L15 0L10 5Z" fill="none" stroke="black" stroke-width="1.28"/></g><g transform="translate(406.25,0) scale(1.5625) rotate(0)"><path d="M10 5L5 0L0 5L5 10L0 15L5 20L10 15L15 20L20 15L15 10L20 5L15 0L10 5Z" fill="none" stroke="black" stroke-width="1.28"/></g><g transform="translate(375,31.25) scale(1.5625) rotate(0)"><path d="M10 5L5 0L0 5L5 10L0 15L5 20L10 15L15 20L20 15L15 10L20 5L15 0L10 5Z" fill="none" stroke="black" stroke-width="1.28"/></g><g transform="translate(406.25,31.25) scale(1.5625) rotate(0)"><path d="M10 5L5 0L0 5L5 10L0 15L5 20L10 15L15 20L20 15L15 10L20 5L15 0L10 5Z" fill="none" stroke="black" stroke-width="1.28"/></g><g transform="translate(437.5,0) scale(3.125) rotate(0)"><path d="M10 5L5 0L0 5L5 10L0 15L5 20L10 15L15 20L20 15L15 10L20 5L15 0L10 5Z" fill="none" stroke="black" stroke-width="0.64"/></g><g transform="translate(500,0) scale(3.125) rotate(0)"><path d="M10 5L5 0L0 5L5 10L0 15L5 20L10 15L15 20L20 15L15 10L20 5L15 0L10 5Z" fill="none" stroke="black" stroke-width="0.64"/></g><g transform="translate(562.5,0) scale(3.125) rotate(0)"><path d="M10 5L5 0L0 5L5 10L0 15L5 20L10 15L15 20L20 15L15 10L20 5L15 0L10 5Z" fill="none" stroke="black" stroke-width="0.64"/></g><g transform="translate(625,0) scale(3.125) rotate(0)"><path d="M10 5L5 0L0 5L5 10L0 15L5 20L10 15L15 20L20 15L15 10L20 5L15 0L10 5Z" fill="none" stroke="black" stroke-width="0.64"/></g><g transform="translate(687.5,0) scale(3.125) rotate(0)"><path d="M10 5L5 0L0 5L5 10L0 15L5 20L10 15L15 20L20 15L15 10L20 5L15 0L10 5Z" fill="none" stroke="black" stroke-width="0.64"/></g><g transform="translate(0,62.5) scale(3.125) rotate(0)"><path d="M10 5L5 0L0 5L5 10L0 15L5 20L10 15L15 20L20 15L15 10L20 5L15 0L10 5Z" fill="none" stroke="black" stroke-width="0.64"/></g><g transform="translate(62.5,62.5) scale(3.125) rotate(0)"><path d="M10 5L5 0L0 5L5 10L0 15L5 20L10 15L15 20L20 15L15 10L20 5L15 0L10 5Z" fill="none" stroke="black" stroke-width="0.64"/></g><rect x="125" y="62.5" width="62.5" height="62.5" fill="white" stroke="none" stroke-width="2"/><g transform="translate(125,62.5) scale(1.5625) rotate(0)"><path d="M10 5L5 0L0 5L5 10L0 15L5 20L10 15L15 20L20 15L15 10L20 5L15 0L10 5Z" fill="none" stroke="black" stroke-width="1.28"/></g><g transform="translate(156.25,62.5) scale(1.5625) rotate(0)"><path d="M10 5L5 0L0 5L5 10L0 15L5 20L10 15L15 20L20 15L15 10L20 5L15 0L10 5Z" fill="none" stroke="black" stroke-width="1.28"/></g><g transform="translate(125,93.75) scale(1.5625) rotate(0)"><path d="M10 5L5 0L0 5L5 10L0 15L5 20L10 15L15 20L20 15L15 10L20 5L15 0L10 5Z" fill="none" stroke="black" stroke-width="1.28"/></g><g transform="translate(156.25,93.75) scale(1.5625) rotate(0)"><path d="M10 5L5 0L0 5L5 10L0 15L5 20L10 15L15 20L20 15L15 10L20 5L15 0L10 5Z" fill="none" stroke="black" stroke-width="1.28"/></g><g transform="translate(187.5,62.5) scale(3.125) rotate(0)"><path d="M10 5L5 0L0 5L5 10L0 15L5 20L10 15L15 20L20 15L15 10L20 5L15 0L10 5Z" fill="none" stroke="black" stroke-width="0.64"/></g><g transform="translate(250,62.5) scale(3.125) rotate(0)"><path d="M10 5L5 0L0 5L5 10L0 15L5 20L10 15L15 20L20 15L15 10L20 5L15 0L10 5Z" fill="none" stroke="black" stroke-width="0.64"/></g><g transform="translate(312.5,62.5) scale(3.125) rotate(0)"><path d="M10 5L5 0L0 5L5 10L0 15L5 20L10 15L15 20L20 15L15 10L20 5L15 0L10 5Z" fill="none" stroke="black" stroke-width="0.64"/></g><g transform="translate(375,62.5) scale(3.125) rotate(0)"><path d="M10 5L5 0L0 5L5 10L0 15L5 20L10 15L15 20L20 15L15 10L20 5L15 0L10 5Z" fill="none" stroke="black" stroke-width="0.64"/></g><rect x="437.5" y="62.5" width="62.5" height="62.5" fill="white" stroke="none" stroke-width="2"/><g transform="translate(437.5,62.5) scale(1.5625) rotate(0)"><path d="M10 5L5 0L0 5L5 10L0 15L5 20L10 15L15 20L20 15L15 10L20 5L15 0L10 5Z" fill="none" stroke="black" stroke-width="1.28"/></g><g transform="translate(468.75,62.5) scale(1.5625) rotate(0)"><path d="M10 5L5 0L0 5L5 10L0 15L5 20L10 15L15 20L20 15L15 10L20 5L15 0L10 5Z" fill="none" stroke="black" stroke-width="1.28"/></g><g transform="translate(437.5,93.75) scale(1.5625) rotate(0)"><path d="M10 5L5 0L0 5L5 10L0 15L5 20L10 15L15 20L20 15L15 10L20 5L15 0L10 5Z" fill="none" stroke="black" stroke-width="1.28"/></g><g transform="translate(468.75,93.75) scale(1.5625) rotate(0)"><path d="M10 5L5 0L0 5L5 10L0 15L5 20L10 15L15 20L20 15L15 10L20 5L15 0L10 5Z" fill="none" stroke="black" stroke-width="1.28"/></g><g transform="translate(500,62.5) scale(3.125) rotate(0)"><path d="M10 5L5 0L0 5L5 10L0 15L5 20L10 15L15 20L20 15L15 10L20 5L15 0L10 5Z" fill="none" stroke="black" stroke-width="0.64"/></g><g transform="translate(562.5,62.5) scale(3.125) rotate(0)"><path d="M10 5L5 0L0 5L5 10L0 15L5 20L10 15L15 20L20 15L15 10L20 5L15 0L10 5Z" fill="none" stroke="black" stroke-width="0.64"/></g><g transform="translate(625,62.5) scale(3.125) rotate(0)"><path d="M10 5L5 0L0 5L5 10L0 15L5 20L10 15L15 20L20 15L15 10L20 5L15 0L10 5Z" fill="none" stroke="black" stroke-width="0.64"/></g><g transform="translate(687.5,62.5) scale(3.125) rotate(0)"><path d="M10 5L5 0L0 5L5 10L0 15L5 20L10 15L15 20L20 15L15 10L20 5L15 0L10 5Z" fill="none" stroke="black" stroke-width="0.64"/></g><g transform="translate(0,125) scale(3.125) rotate(0)"><path d="M10 5L5 0L0 5L5 10L0 15L5 20L10 15L15 20L20 15L15 10L20 5L15 0L10 5Z" fill="none" stroke="black" stroke-width="0.64"/></g><g transform="translate(62.5,125) scale(3.125) rotate(0)"><path d="M10 5L5 0L0 5L5 10L0 15L5 20L10 15L15 20L20 15L15 10L20 5L15 0L10 5Z" fill="none" stroke="black" stroke-width="0.64"/></g><rect x="125" y="125" width="62.5" height="62.5" fill="white" stroke="none" stroke-width="2"/><g transform="translate(125,125) scale(1.5625) rotate(0)"><path d="M10 5L5 0L0 5L5 10L0 15L5 20L10 15L15 20L20 15L15 10L20 5L15 0L10 5Z" fill="none" stroke="black" stroke-width="1.28"/></g><g transform="translate(156.25,125) scale(1.5625) rotate(0)"><path d="M10 5L5 0L0 5L5 10L0 15L5 20L10 15L15 20L20 15L15 10L20 5L15 0L10 5Z" fill="none" stroke="black" stroke-width="1.28"/></g><g transform="translate(125,156.25) scale(1.5625) rotate(0)"><path d="M10 5L5 0L0 5L5 10L0 15L5 20L10 15L15 20L20 15L15 10L20 5L15 0L10 5Z" fill="none" stroke="black" stroke-width="1.28"/></g><g transform="translate(156.25,156.25) scale(1.5625) rotate(0)"><path d="M10 5L5 0L0 5L5 10L0 15L5 20L10 15L15 20L20 15L15 10L20 5L15 0L10 5Z" fill="none" stroke="black" stroke-width="1.28"/></g><g transform="translate(187.5,125) scale(3.125) rotate(0)"><path d="M10 5L5 0L0 5L5 10L0 15L5 20L10 15L15 20L20 15L15 10L20 5L15 0L10 5Z" fill="none" stroke="black" stroke-width="0.64"/></g><g transform="translate(250,125) scale(3.125) rotate(0)"><path d="M10 5L5 0L0 5L5 10L0 15L5 20L10 15L15 20L20 15L15 10L20 5L15 0L10 5Z" fill="none" stroke="black" stroke-width="0.64"/></g><g transform="translate(312.5,125) scale(3.125) rotate(0)"><path d="M10 5L5 0L0 5L5 10L0 15L5 20L10 15L15 20L20 15L15 10L20 5L15 0L10 5Z" fill="none" stroke="black" stroke-width="0.64"/></g><g transform="translate(375,125) scale(3.125) rotate(0)"><path d="M10 5L5 0L0 5L5 10L0 15L5 20L10 15L15 20L20 15L15 10L20 5L15 0L10 5Z" fill="none" stroke="black" stroke-width="0.64"/></g><rect x="437.5" y="125" width="62.5" height="62.5" fill="white" stroke="none" stroke-width="2"/><g transform="translate(437.5,125) scale(1.5625) rotate(0)"><path d="M10 5L5 0L0 5L5 10L0 15L5 20L10 15L15 20L20 15L15 10L20 5L15 0L10 5Z" fill="none" stroke="black" stroke-width="1.28"/></g><g transform="translate(468.75,125) scale(1.5625) rotate(0)"><path d="M10 5L5 0L0 5L5 10L0 15L5 20L10 15L15 20L20 15L15 10L20 5L15 0L10 5Z" fill="none" stroke="black" stroke-width="1.28"/></g><g transform="translate(437.5,156.25) scale(1.5625) rotate(0)"><path d="M10 5L5 0L0 5L5 10L0 15L5 20L10 15L15 20L20 15L15 10L20 5L15 0L10 5Z" fill="none" stroke="black" stroke-width="1.28"/></g><g transform="translate(468.75,156.25) scale(1.5625) rotate(0)"><path d="M10 5L5 0L0 5L5 10L0 15L5 20L10 15L15 20L20 15L15 10L20 5L15 0L10 5Z" fill="none" stroke="black" stroke-width="1.28"/></g><g transform="translate(500,125) scale(3.125) rotate(0)"><path d="M10 5L5 0L0 5L5 10L0 15L5 20L10 15L15 20L20 15L15 10L20 5L15 0L10 5Z" fill="none" stroke="black" stroke-width="0.64"/></g><g transform="translate(562.5,125) scale(3.125) rotate(0)"><path d="M10 5L5 0L0 5L5 10L0 15L5 20L10 15L15 20L20 15L15 10L20 5L15 0L10 5Z" fill="none" stroke="black" stroke-width="0.64"/></g><rect x="625" y="125" width="62.5" height="62.5" fill="white" stroke="none" stroke-width="2"/><g transform="translate(625,125) scale(1.5625) rotate(0)"><path d="M10 5L5 0L0 5L5 10L0 15L5 20L10 15L15 20L20 15L15 10L20 5L15 0L10 5Z" fill="none" stroke="black" stroke-width="1.28"/></g><g transform="translate(656.25,125) scale(1.5625) rotate(0)"><path d="M10 5L5 0L0 5L5 10L0 15L5 20L10 15L15 20L20 15L15 10L20 5L15 0L10 5Z" fill="none" stroke="black" stroke-width="1.28"/></g><g transform="translate(625,156.25) scale(1.5625) rotate(0)"><path d="M10 5L5 0L0 5L5 10L0 15L5 20L10 15L15 20L20 15L15 10L20 5L15 0L10 5Z" fill="none" stroke="black" stroke-width="1.28"/></g><g transform="translate(656.25,156.25) scale(1.5625) rotate(0)"><path d="M10 5L5 0L0 5L5 10L0 15L5 20L10 15L15 20L20 15L15 10L20 5L15 0L10 5Z" fill="none" stroke="black" stroke-width="1.28"/></g><rect x="687.5" y="125" width="62.5" height="62.5" fill="white" stroke="none" stroke-width="2"/><g transform="translate(687.5,125) scale(1.5625) rotate(0)"><path d="M10 5L5 0L0 5L5 10L0 15L5 20L10 15L15 20L20 15L15 10L20 5L15 0L10 5Z" fill="none" stroke="black" stroke-width="1.28"/></g><g transform="translate(718.75,125) scale(1.5625) rotate(0)"><path d="M10 5L5 0L0 5L5 10L0 15L5 20L10 15L15 20L20 15L15 10L20 5L15 0L10 5Z" fill="none" stroke="black" stroke-width="1.28"/></g><g transform="translate(687.5,156.25) scale(1.5625) rotate(0)"><path d="M10 5L5 0L0 5L5 10L0 15L5 20L10 15L15 20L20 15L15 10L20 5L15 0L10 5Z" fill="none" stroke="black" stroke-width="1.28"/></g><g transform="translate(718.75,156.25) scale(1.5625) rotate(0)"><path d="M10 5L5 0L0 5L5 10L0 15L5 20L10 15L15 20L20 15L15 10L20 5L15 0L10 5Z" fill="none" stroke="black" stroke-width="1.28"/></g><g transform="translate(0,187.5) scale(3.125) rotate(0)"><path d="M10 5L5 0L0 5L5 10L0 15L5 20L10 15L15 20L20 15L15 10L20 5L15 0L10 5Z" fill="none" stroke="black" stroke-width="0.64"/></g><g transform="translate(62.5,187.5) scale(3.125) rotate(0)"><path d="M10 5L5 0L0 5L5 10L0 15L5 20L10 15L15 20L20 15L15 10L20 5L15 0L10 5Z" fill="none" stroke="black" stroke-width="0.64"/></g><g transform="translate(125,187.5) scale(3.125) rotate(0)"><path d="M10 5L5 0L0 5L5 10L0 15L5 20L10 15L15 20L20 15L15 10L20 5L15 0L10 5Z" fill="none" stroke="black" stroke-width="0.64"/></g><g transform="translate(187.5,187.5) scale(3.125) rotate(0)"><path d="M10 5L5 0L0 5L5 10L0 15L5 20L10 15L15 20L20 15L15 10L20 5L15 0L10 5Z" fill="none" stroke="black" stroke-width="0.64"/></g><g transform="translate(250,187.5) scale(3.125) rotate(0)"><path d="M10 5L5 0L0 5L5 10L0 15L5 20L10 15L15 20L20 15L15 10L20 5L15 0L10 5Z" fill="none" stroke="black" stroke-width="0.64"/></g><g transform="translate(312.5,187.5) scale(3.125) rotate(0)"><path d="M10 5L5 0L0 5L5 10L0 15L5 20L10 15L15 20L20 15L15 10L20 5L15 0L10 5Z" fill="none" stroke="black" stroke-width="0.64"/></g><rect x="375" y="187.5" width="62.5" height="62.5" fill="white" stroke="none" stroke-width="2"/><g transform="translate(375,187.5) scale(1.5625) rotate(0)"><path d="M10 5L5 0L0 5L5 10L0 15L5 20L10 15L15 20L20 15L15 10L20 5L15 0L10 5Z" fill="none" stroke="black" stroke-width="1.28"/></g><g transform="translate(406.25,187.5) scale(1.5625) rotate(0)"><path d="M10 5L5 0L0 5L5 10L0 15L5 20L10 15L15 20L20 15L15 10L20 5L15 0L10 5Z" fill="none" stroke="black" stroke-width="1.28"/></g><g transform="translate(375,218.75) scale(1.5625) rotate(0)"><path d="M10 5L5 0L0 5L5 10L0 15L5 20L10 15L15 20L20 15L15 10L20 5L15 0L10 5Z" fill="none" stroke="black" stroke-width="1.28"/></g><g transform="translate(406.25,218.75) scale(1.5625) rotate(0)"><path d="M10 5L5 0L0 5L5 10L0 15L5 20L10 15L15 20L20 15L15 10L20 5L15 0L10 5Z" fill="none" stroke="black" stroke-width="1.28"/></g><g transform="translate(437.5,187.5) scale(3.125) rotate(0)"><path d="M10 5L5 0L0 5L5 10L0 15L5 20L10 15L15 20L20 15L15 10L20 5L15 0L10 5Z" fill="none" stroke="black" stroke-width="0.64"/></g><rect x="500" y="187.5" width="62.5" height="62.5" fill="white" stroke="none" stroke-width="2"/><g transform="translate(500,187.5) scale(1.5625) rotate(0)"><path d="M10 5L5 0L0 5L5 10L0 15L5 20L10 15L15 20L20 15L15 10L20 5L15 0L10 5Z" fill="none" stroke="black" stroke-width="1.28"/></g><g transform="translate(531.25,187.5) scale(1.5625) rotate(0)"><path d="M10 5L5 0L0 5L5 10L0 15L5 20L10 15L15 20L20 15L15 10L20 5L15 0L10 5Z" fill="none" stroke="black" stroke-width="1.28"/></g><g transform="translate(500,218.75) scale(1.5625) rotate(0)"><path d="M10 5L5 0L0 5L5 10L0 15L5 20L10 15L15 20L20 15L15 10L20 5L15 0L10 5Z" fill="none" stroke="black" stroke-width="1.28"/></g><g transform="translate(531.25,218.75) scale(1.5625) rotate(0)"><path d="M10 5L5 0L0 5L5 10L0 15L5 20L10 15L15 20L20 15L15 10L20 5L15 0L10 5Z" fill="none" stroke="black" stroke-width="1.28"/></g><g transform="translate(562.5,187.5) scale(3.125) rotate(0)"><path d="M10 5L5 0L0 5L5 10L0 15L5 20L10 15L15 20L20 15L15 10L20 5L15 0L10 5Z" fill="none" stroke="black" stroke-width="0.64"/></g><rect x="625" y="187.5" width="62.5" height="62.5" fill="white" stroke="none" stroke-width="2"/><g transform="translate(625,187.5) scale(1.5625) rotate(0)"><path d="M10 5L5 0L0 5L5 10L0 15L5 20L10 15L15 20L20 15L15 10L20 5L15 0L10 5Z" fill="none" stroke="black" stroke-width="1.28"/></g><g transform="translate(656.25,187.5) scale(1.5625) rotate(0)"><path d="M10 5L5 0L0 5L5 10L0 15L5 20L10 15L15 20L20 15L15 10L20 5L15 0L10 5Z" fill="none" stroke="black" stroke-width="1.28"/></g><g transform="translate(625,218.75) scale(1.5625) rotate(0)"><path d="M10 5L5 0L0 5L5 10L0 15L5 20L10 15L15 20L20 15L15 10L20 5L15 0L10 5Z" fill="none" stroke="black" stroke-width="1.28"/></g><g transform="translate(656.25,218.75) scale(1.5625) rotate(0)"><path d="M10 5L5 0L0 5L5 10L0 15L5 20L10 15L15 20L20 15L15 10L20 5L15 0L10 5Z" fill="none" stroke="black" stroke-width="1.28"/></g><g transform="translate(687.5,187.5) scale(3.125) rotate(0)"><path d="M10 5L5 0L0 5L5 10L0 15L5 20L10 15L15 20L20 15L15 10L20 5L15 0L10 5Z" fill="none" stroke="black" stroke-width="0.64"/></g><g transform="translate(0,250) scale(3.125) rotate(0)"><path d="M10 5L5 0L0 5L5 10L0 15L5 20L10 15L15 20L20 15L15 10L20 5L15 0L10 5Z" fill="none" stroke="black" stroke-width="0.64"/></g><g transform="translate(62.5,250) scale(3.125) rotate(0)"><path d="M10 5L5 0L0 5L5 10L0 15L5 20L10 15L15 20L20 15L15 10L20 5L15 0L10 5Z" fill="none" stroke="black" stroke-width="0.64"/></g><rect x="125" y="250" width="62.5" height="62.5" fill="white" stroke="none" stroke-width="2"/><g transform="translate(125,250) scale(1.5625) rotate(0)"><path d="M10 5L5 0L0 5L5 10L0 15L5 20L10 15L15 20L20 15L15 10L20 5L15 0L10 5Z" fill="none" stroke="black" stroke-width="1.28"/></g><g transform="translate(156.25,250) scale(1.5625) rotate(0)"><path d="M10 5L5 0L0 5L5 10L0 15L5 20L10 15L15 20L20 15L15 10L20 5L15 0L10 5Z" fill="none" stroke="black" stroke-width="1.28"/></g><g transform="translate(125,281.25) scale(1.5625) rotate(0)"><path d="M10 5L5 0L0 5L5 10L0 15L5 20L10 15L15 20L20 15L15 10L20 5L15 0L10 5Z" fill="none" stroke="black" stroke-width="1.28"/></g><g transform="translate(156.25,281.25) scale(1.5625) rotate(0)"><path d="M10 5L5 0L0 5L5 10L0 15L5 20L10 15L15 20L20 15L15 10L20 5L15 0L10 5Z" fill="none" stroke="black" stroke-width="1.28"/></g><rect x="187.5" y="250" width="62.5" height="62.5" fill="white" stroke="none" stroke-width="2"/><g transform="translate(187.5,250) scale(1.5625) rotate(0)"><path d="M10 5L5 0L0 5L5 10L0 15L5 20L10 15L15 20L20 15L15 10L20 5L15 0L10 5Z" fill="none" stroke="black" stroke-width="1.28"/></g><g transform="translate(218.75,250) scale(1.5625) rotate(0)"><path d="M10 5L5 0L0 5L5 10L0 15L5 20L10 15L15 20L20 15L15 10L20 5L15 0L10 5Z" fill="none" stroke="black" stroke-width="1.28"/></g><g transform="translate(187.5,281.25) scale(1.5625) rotate(0)"><path d="M10 5L5 0L0 5L5 10L0 15L5 20L10 15L15 20L20 15L15 10L20 5L15 0L10 5Z" fill="none" stroke="black" stroke-width="1.28"/></g><g transform="translate(218.75,281.25) scale(1.5625) rotate(0)"><path d="M10 5L5 0L0 5L5 10L0 15L5 20L10 15L15 20L20 15L15 10L20 5L15 0L10 5Z" fill="none" stroke="black" stroke-width="1.28"/></g><rect x="250" y="250" width="62.5" height="62.5" fill="white" stroke="none" stroke-width="2"/><g transform="translate(250,250) scale(1.5625) rotate(0)"><path d="M10 5L5 0L0 5L5 10L0 15L5 20L10 15L15 20L20 15L15 10L20 5L15 0L10 5Z" fill="none" stroke="black" stroke-width="1.28"/></g><g transform="translate(281.25,250) scale(1.5625) rotate(0)"><path d="M10 5L5 0L0 5L5 10L0 15L5 20L10 15L15 20L20 15L15 10L20 5L15 0L10 5Z" fill="none" stroke="black" stroke-width="1.28"/></g><g transform="translate(250,281.25) scale(1.5625) rotate(0)"><path d="M10 5L5 0L0 5L5 10L0 15L5 20L10 15L15 20L20 15L15 10L20 5L15 0L10 5Z" fill="none" stroke="black" stroke-width="1.28"/></g><g transform="translate(281.25,281.25) scale(1.5625) rotate(0)"><path d="M10 5L5 0L0 5L5 10L0 15L5 20L10 15L15 20L20 15L15 10L20 5L15 0L10 5Z" fill="none" stroke="black" stroke-width="1.28"/></g><g transform="translate(312.5,250) scale(3.125) rotate(0)"><path d="M10 5L5 0L0 5L5 10L0 15L5 20L10 15L15 20L20 15L15 10L20 5L15 0L10 5Z" fill="none" stroke="black" stroke-width="0.64"/></g><g transform="translate(375,250) scale(3.125) rotate(0)"><path d="M10 5L5 0L0 5L5 10L0 15L5 20L10 15L15 20L20 15L15 10L20 5L15 0L10 5Z" fill="none" stroke="black" stroke-width="0.64"/></g><g transform="translate(437.5,250) scale(3.125) rotate(0)"><path d="M10 5L5 0L0 5L5 10L0 15L5 20L10 15L15 20L20 15L15 10L20 5L15 0L10 5Z" fill="none" stroke="black" stroke-width="0.64"/></g><rect x="500" y="250" width="62.5" height="62.5" fill="white" stroke="none" stroke-width="2"/><g transform="translate(500,250) scale(1.5625) rotate(0)"><path d="M10 5L5 0L0 5L5 10L0 15L5 20L10 15L15 20L20 15L15 10L20 5L15 0L10 5Z" fill="none" stroke="black" stroke-width="1.28"/></g><g transform="translate(531.25,250) scale(1.5625) rotate(0)"><path d="M10 5L5 0L0 5L5 10L0 15L5 20L10 15L15 20L20 15L15 10L20 5L15 0L10 5Z" fill="none" stroke="black" stroke-width="1.28"/></g><g transform="translate(500,281.25) scale(1.5625) rotate(0)"><path d="M10 5L5 0L0 5L5 10L0 15L5 20L10 15L15 20L20 15L15 10L20 5L15 0L10 5Z" fill="none" stroke="black" stroke-width="1.28"/></g><g transform="translate(531.25,281.25) scale(1.5625) rotate(0)"><path d="M10 5L5 0L0 5L5 10L0 15L5 20L10 15L15 20L20 15L15 10L20 5L15 0L10 5Z" fill="none" stroke="black" stroke-width="1.28"/></g><g transform="translate(562.5,250) scale(3.125) rotate(0)"><path d="M10 5L5 0L0 5L5 10L0 15L5 20L10 15L15 20L20 15L15 10L20 5L15 0L10 5Z" fill="none" stroke="black" stroke-width="0.64"/></g><g transform="translate(625,250) scale(3.125) rotate(0)"><path d="M10 5L5 0L0 5L5 10L0 15L5 20L10 15L15 20L20 15L15 10L20 5L15 0L10 5Z" fill="none" stroke="black" stroke-width="0.64"/></g><g transform="translate(687.5,250) scale(3.125) rotate(0)"><path d="M10 5L5 0L0 5L5 10L0 15L5 20L10 15L15 20L20 15L15 10L20 5L15 0L10 5Z" fill="none" stroke="black" stroke-width="0.64"/></g><g transform="translate(0,312.5) scale(3.125) rotate(0)"><path d="M10 5L5 0L0 5L5 10L0 15L5 20L10 15L15 20L20 15L15 10L20 5L15 0L10 5Z" fill="none" stroke="black" stroke-width="0.64"/></g><rect x="62.5" y="312.5" width="62.5" height="62.5" fill="white" stroke="none" stroke-width="2"/><g transform="translate(62.5,312.5) scale(1.5625) rotate(0)"><path d="M10 5L5 0L0 5L5 10L0 15L5 20L10 15L15 20L20 15L15 10L20 5L15 0L10 5Z" fill="none" stroke="black" stroke-width="1.28"/></g><g transform="translate(93.75,312.5) scale(1.5625) rotate(0)"><path d="M10 5L5 0L0 5L5 10L0 15L5 20L10 15L15 20L20 15L15 10L20 5L15 0L10 5Z" fill="none" stroke="black" stroke-width="1.28"/></g><g transform="translate(62.5,343.75) scale(1.5625) rotate(0)"><path d="M10 5L5 0L0 5L5 10L0 15L5 20L10 15L15 20L20 15L15 10L20 5L15 0L10 5Z" fill="none" stroke="black" stroke-width="1.28"/></g><g transform="translate(93.75,343.75) scale(1.5625) rotate(0)"><path d="M10 5L5 0L0 5L5 10L0 15L5 20L10 15L15 20L20 15L15 10L20 5L15 0L10 5Z" fill="none" stroke="black" stroke-width="1.28"/></g><rect x="125" y="312.5" width="62.5" height="62.5" fill="white" stroke="none" stroke-width="2"/><g transform="translate(125,312.5) scale(1.5625) rotate(0)"><path d="M10 5L5 0L0 5L5 10L0 15L5 20L10 15L15 20L20 15L15 10L20 5L15 0L10 5Z" fill="none" stroke="black" stroke-width="1.28"/></g><g transform="translate(156.25,312.5) scale(1.5625) rotate(0)"><path d="M10 5L5 0L0 5L5 10L0 15L5 20L10 15L15 20L20 15L15 10L20 5L15 0L10 5Z" fill="none" stroke="black" stroke-width="1.28"/></g><g transform="translate(125,343.75) scale(1.5625) rotate(0)"><path d="M10 5L5 0L0 5L5 10L0 15L5 20L10 15L15 20L20 15L15 10L20 5L15 0L10 5Z" fill="none" stroke="black" stroke-width="1.28"/></g><g transform="translate(156.25,343.75) scale(1.5625) rotate(0)"><path d="M10 5L5 0L0 5L5 10L0 15L5 20L10 15L15 20L20 15L15 10L20 5L15 0L10 5Z" fill="none" stroke="black" stroke-width="1.28"/></g><g transform="translate(187.5,312.5) scale(3.125) rotate(0)"><path d="M10 5L5 0L0 5L5 10L0 15L5 20L10 15L15 20L20 15L15 10L20 5L15 0L10 5Z" fill="none" stroke="black" stroke-width="0.64"/></g><g transform="translate(250,312.5) scale(3.125) rotate(0)"><path d="M10 5L5 0L0 5L5 10L0 15L5 20L10 15L15 20L20 15L15 10L20 5L15 0L10 5Z" fill="none" stroke="black" stroke-width="0.64"/></g><g transform="translate(312.5,312.5) scale(3.125) rotate(0)"><path d="M10 5L5 0L0 5L5 10L0 15L5 20L10 15L15 20L20 15L15 10L20 5L15 0L10 5Z" fill="none" stroke="black" stroke-width="0.64"/></g><g transform="translate(375,312.5) scale(3.125) rotate(0)"><path d="M10 5L5 0L0 5L5 10L0 15L5 20L10 15L15 20L20 15L15 10L20 5L15 0L10 5Z" fill="none" stroke="black" stroke-width="0.64"/></g><g transform="translate(437.5,312.5) scale(3.125) rotate(0)"><path d="M10 5L5 0L0 5L5 10L0 15L5 20L10 15L15 20L20 15L15 10L20 5L15 0L10 5Z" fill="none" stroke="black" stroke-width="0.64"/></g><rect x="500" y="312.5" width="62.5" height="62.5" fill="white" stroke="none" stroke-width="2"/><g transform="translate(500,312.5) scale(1.5625) rotate(0)"><path d="M10 5L5 0L0 5L5 10L0 15L5 20L10 15L15 20L20 15L15 10L20 5L15 0L10 5Z" fill="none" stroke="black" stroke-width="1.28"/></g><g transform="translate(531.25,312.5) scale(1.5625) rotate(0)"><path d="M10 5L5 0L0 5L5 10L0 15L5 20L10 15L15 20L20 15L15 10L20 5L15 0L10 5Z" fill="none" stroke="black" stroke-width="1.28"/></g><g transform="translate(500,343.75) scale(1.5625) rotate(0)"><path d="M10 5L5 0L0 5L5 10L0 15L5 20L10 15L15 20L20 15L15 10L20 5L15 0L10 5Z" fill="none" stroke="black" stroke-width="1.28"/></g><g transform="translate(531.25,343.75) scale(1.5625) rotate(0)"><path d="M10 5L5 0L0 5L5 10L0 15L5 20L10 15L15 20L20 15L15 10L20 5L15 0L10 5Z" fill="none" stroke="black" stroke-width="1.28"/></g><g transform="translate(562.5,312.5) scale(3.125) rotate(0)"><path d="M10 5L5 0L0 5L5 10L0 15L5 20L10 15L15 20L20 15L15 10L20 5L15 0L10 5Z" fill="none" stroke="black" stroke-width="0.64"/></g><g transform="translate(625,312.5) scale(3.125) rotate(0)"><path d="M10 5L5 0L0 5L5 10L0 15L5 20L10 15L15 20L20 15L15 10L20 5L15 0L10 5Z" fill="none" stroke="black" stroke-width="0.64"/></g><g transform="translate(687.5,312.5) scale(3.125) rotate(0)"><path d="M10 5L5 0L0 5L5 10L0 15L5 20L10 15L15 20L20 15L15 10L20 5L15 0L10 5Z" fill="none" stroke="black" stroke-width="0.64"/></g></g></svg>